# xmcd CD database file
#
# Track frame offsets:
#	150
#	25312
#	56944
#	82824
#	114188
#	137358
#	163773
#	193491
#
# Disc length: 2936 seconds
#
# Revision: 1
# Processed by: cddbd v1.5PL3 Copyright (c) Steve Scherf et al.
# Submitted via: CDex 1.51
#
DISCID=660b7608
DTITLE=Robert "Jazzano" Carr - Finer Moments
DYEAR=2003
DGENRE=Jazz
TTITLE0=Robert "Jazzano" Carr - Finer Moments - 01 - Tiptoe Through The Night
TTITLE1=Robert "Jazzano" Carr - Finer Moments - 02 - Finer Moments(Stan "Papa" Williams on Guitar)
TTITLE2=Robert "Jazzano" Carr - Finer Moments - 03 - On The Money
TTITLE3=Robert "Jazzano" Carr - Finer Moments - 04 - Stella, Stella
TTITLE4=Robert "Jazzano" Carr - Finer Moments - 05 - Carribean Girl
TTITLE5=Robert "Jazzano" Carr - Finer Moments - 06 - Raindance
TTITLE6=Robert "Jazzano" Carr - Finer Moments - 07 - A Hip Man's Journey
TTITLE7=Robert "Jazzano" Carr - Finer Moments - 08 - She's 2 Much
EXTD=YEAR: 2003
EXTT0=
EXTT1=
EXTT2=
EXTT3=
EXTT4=
EXTT5=
EXTT6=
EXTT7=
PLAYORDER=
